<svg xmlns="http://www.w3.org/2000/svg" viewBox="0 0 71 56" fill="none">
    <g clip-path="url(#clip0_10961_46084)">
        <path
            d="M67.1568 28.4185C68.3968 28.4185 69.3509 29.4342 69.3509 30.6141C69.3509 31.8415 68.3684 32.8287 67.1568 32.8287C65.9547 32.8287 64.9596 31.8541 64.9596 30.6141C64.9596 29.4057 65.9547 28.4185 67.1568 28.4185ZM67.1568 28.1199C65.8236 28.1199 64.6642 29.2146 64.6642 30.6125C64.6642 32.0105 65.811 33.1194 67.1568 33.1194C68.5153 33.1194 69.6494 32.0121 69.6494 30.6125C69.6494 29.2288 68.5279 28.1199 67.1568 28.1199ZM66.615 29.5716H67.1947C67.3922 29.5716 67.7223 29.5716 67.7223 29.9933C67.7223 30.4025 67.3795 30.4025 67.1947 30.4025H66.615V29.5716ZM66.2469 31.9331H66.6166V30.72H67.0778C67.5138 30.72 67.618 30.8242 67.6591 31.2349C67.7112 31.6567 67.7381 31.7625 67.7902 31.9331H68.1725C68.0809 31.6693 68.0556 31.4181 68.0145 31.088C67.975 30.7579 67.8834 30.6378 67.607 30.5731C68.1077 30.4277 68.1077 30.006 68.1077 29.927C68.1077 29.2541 67.3969 29.2541 67.1979 29.2541H66.2485V31.9331H66.2469Z"
            fill="#A7A9AC"></path>
        <path
            d="M2.84644 43.0142C4.09591 39.5375 5.57758 36.1019 7.37359 32.8605C15.1768 30.5954 16.6206 32.314 16.6206 30.3221C16.6206 30.1657 16.777 29.7361 15.9571 29.5402C14.8656 29.2669 12.2103 29.5797 8.89474 30.2826C10.4159 27.4725 12.1329 24.6987 14.1627 22.1998C18.7293 21.1857 20.3279 20.9503 21.1082 20.9108C21.8901 20.9108 21.8506 21.1446 23.138 21.1446C23.7241 21.1446 24.1521 20.5586 24.1521 19.9741C24.1521 18.9584 22.5141 18.8416 21.7732 18.8416C19.3928 18.8416 15.5686 19.5824 13.2276 20.1684C12.3699 20.4038 10.4191 20.7165 10.4191 21.9644C10.4191 22.3167 10.6528 22.7068 11.0825 22.7068C13.384 18.881 6.12728 31.0234 3.74682 35.241C2.88751 36.7637 0 42.9731 0 44.4943C0 45.1593 0.546542 46.017 1.24947 46.017C1.87341 46.017 2.0677 45.4326 2.22408 44.9634L2.84644 43.0142Z"
            fill="#A7A9AC"></path>
        <path fill-rule="evenodd" clip-rule="evenodd"
            d="M13.5005 40.9299C13.5005 41.399 13.8527 41.8666 14.3598 41.8666C15.2175 41.8666 15.3739 40.8904 15.5682 40.227C17.4416 33.9022 20.6008 30.7778 20.6008 29.9185C20.6008 29.4888 20.2501 29.1745 19.8615 29.1745C18.4952 29.1776 13.5005 38.5494 13.5005 40.9299ZM23.6463 21.7203C22.6322 21.7203 21.2279 23.5953 21.2279 24.5699C21.2279 25.1165 21.5786 25.5082 22.1251 25.5082C23.1787 25.5082 24.583 23.6727 24.583 22.657C24.583 22.1121 24.2307 21.7203 23.6463 21.7203Z"
            fill="#A7A9AC"></path>
        <path
            d="M23.2137 27.6102C22.6277 27.6876 21.8094 27.844 21.8094 28.5864C21.8094 29.1725 22.5503 29.4852 23.0194 29.4852C23.2927 29.4852 23.5659 29.4078 23.8376 29.3288C21.1081 34.3662 20.5205 36.6693 20.5205 38.857C20.3657 40.7304 21.691 41.5502 22.6672 41.5502C24.5801 41.5502 26.2181 39.4794 27.2322 38.0735C27.5829 37.606 28.8703 35.7326 28.8703 35.1449C28.8703 34.8338 28.5575 34.6 28.2447 34.6C27.8546 34.6 27.6224 34.9507 27.4265 35.2634C26.6857 36.5129 24.8897 39.4794 23.408 39.4794C22.7446 39.4794 22.5487 38.9328 22.5487 38.3879C22.5487 35.8494 25.1645 30.7726 26.5672 28.5469C28.0504 28.1568 29.5716 27.4934 31.0548 27.337C31.6804 27.2596 32.5002 27.2596 32.5002 26.4398C32.5002 25.7384 31.9931 25.5031 31.3676 25.5031C30.3914 25.5031 29.183 25.8553 28.2068 26.1286C28.6349 25.2314 30.4293 23.279 30.4293 22.4592C30.4293 22.069 30.0392 21.5999 29.649 21.5999C28.6349 21.5999 25.9038 26.1696 25.2798 27.1458L23.2137 27.6102Z"
            fill="#A7A9AC"></path>
        <path fill-rule="evenodd" clip-rule="evenodd"
            d="M37.594 40.1879C37.594 40.657 37.9462 41.1246 38.4517 41.1246C39.3094 41.1246 39.4674 40.1484 39.6617 39.485C41.5351 33.1602 44.6959 30.0358 44.6959 29.1765C44.6959 28.7468 44.3452 28.4356 43.9551 28.4356C42.5887 28.4356 37.594 37.8058 37.594 40.1879ZM47.7398 20.9783C46.7257 20.9783 45.3198 22.8533 45.3198 23.8279C45.3198 24.3761 45.6705 24.7646 46.217 24.7646C47.2706 24.7646 48.6765 22.9291 48.6765 21.915C48.6765 21.3685 48.3242 20.9783 47.7398 20.9783Z"
            fill="#A7A9AC"></path>
        <path
            d="M48.2224 29.4823C47.0124 29.4823 43.8532 36.2762 43.1503 37.682C42.877 38.2681 42.4078 39.2427 42.4078 39.8682C42.4078 40.4148 42.719 40.8444 43.3051 40.8444C44.1249 40.8444 44.6319 39.6328 44.9447 39.0863C46.1152 36.938 47.5194 34.9083 49.5492 33.5814L49.6266 33.6604C48.5335 35.2605 47.5984 37.4467 47.5984 39.478C47.5984 40.6501 47.9886 43.0701 49.5492 43.0701C49.9789 43.0701 50.369 42.6799 50.369 42.2502C50.369 41.7416 49.5097 41.1177 49.5097 39.4386C49.7056 34.5987 53.9974 31.5137 54.0369 30.1852C54.0369 29.5992 53.7241 29.2501 53.2171 29.2501C51.7733 29.2501 48.2618 32.7252 47.2857 33.8578L47.2083 33.7788C47.442 32.9195 49.0817 31.2025 49.0817 30.3432C49.0801 29.8741 48.6899 29.4823 48.2224 29.4823Z"
            fill="#A7A9AC"></path>
        <path fill-rule="evenodd" clip-rule="evenodd"
            d="M55.7212 35.3402C55.8775 34.6357 56.6184 33.4257 57.4777 32.4116C58.3354 31.3564 59.3511 30.4971 60.0145 30.4971C60.2862 30.4971 60.4442 30.6535 60.4442 30.9284C60.4442 31.6313 59.547 32.6454 59.1173 33.1145C58.1016 34.2076 57.0859 34.9106 55.7212 35.3402ZM60.8723 28.39C58.6482 28.39 53.1843 32.8808 53.1843 37.7996C53.1843 39.6731 54.4338 40.7282 56.1903 40.8056C59.3906 40.9241 64.3442 36.16 64.4627 34.7937C64.5022 34.5204 64.1894 34.2471 63.9161 34.2471C63.1358 34.2471 60.4821 38.7758 57.127 38.7758C55.9565 38.7758 55.0972 38.1124 55.2931 36.9024C59.1947 35.8868 62.3555 32.1384 62.3555 29.7958C62.3555 28.9744 61.6526 28.39 60.8723 28.39Z"
            fill="#A7A9AC"></path>
        <path
            d="M38.1212 30.7925C42.225 23.7664 57.217 4.97386 58.0068 1.81466C58.2438 0.866898 57.0591 -0.000305176 56.1129 -0.000305176C54.3769 -0.000305176 52.404 3.07834 51.4578 4.34202L42.8569 16.1053C32.283 31.1874 27.7069 39.872 25.1037 47.7669C23.998 51.0051 25.9788 53.0506 28.1081 52.6573C30.7918 52.1834 34.3444 50.4522 40.3247 49.2738C46.4078 48.0749 51.442 47.7574 55.9281 48.2408C56.4778 48.3008 60.4252 49.3465 60.4252 46.2678C60.4252 43.3456 45.697 42.7153 30.1521 47.3736C31.8881 41.45 35.0441 36.0826 38.1212 30.7925Z"
            fill="#CD0039"></path>
    </g>
    <defs>
        <clipPath>
            <rect width="70.2745" height="56" fill="white"></rect>
        </clipPath>
    </defs>
</svg>
