
<svg width="88" height="59" viewBox="0 0 88 59" fill="none" xmlns="http://www.w3.org/2000/svg">
<mask id="mask0" mask-type="alpha" maskUnits="userSpaceOnUse" x="0" y="0" width="88" height="59">
<path fill-rule="evenodd" clip-rule="evenodd" d="M0 0H87.7969V58.9433H0V0Z" fill="white"/>
</mask>
<g mask="url(#mask0)">
<path fill-rule="evenodd" clip-rule="evenodd" d="M44.8614 14.7228C51.1368 13.2166 57.6144 12.5617 64.0679 12.9727C71.1461 13.4234 79.1987 15.112 84.1531 20.5885C89.9899 26.8941 88.4845 35.5317 81.988 40.879C82.4905 40.7924 84.5905 40.3875 85.5635 40.3833C85.7585 40.382 86.0218 40.4499 85.5209 41.2358C83.6755 44.1301 81.3285 46.3306 78.75 48.5074C78.9319 51.4839 78.8737 55.1499 78.3034 58.2898C78.2114 58.7972 77.8487 58.7291 77.6237 58.5558C75.6752 57.0526 73.5938 54.9865 72.1042 53.1998C67.9437 55.4547 64.0007 57.0612 59.6677 58.4598C58.3957 58.8532 58.856 58.2285 59.2504 57.6607C61.4772 54.4717 63.4559 51.2998 65.4481 47.9603C64.6762 47.4902 63.7491 46.9509 63.1174 46.442C57.3225 50.8773 50.5114 54.0207 43.5347 56.1144C33.8764 59.0126 24.4404 59.6126 16.9938 58.2409C8.88367 56.7463 2.95038 52.8788 1.11762 46.993C-1.24133 39.42 4.06042 32.1596 9.51655 27.4363C10.2661 25.1343 12.2601 20.6447 13.3873 18.3174C9.41983 15.786 3.93797 12.6858 1.33678 10.9562C-0.826059 9.50666 -0.312079 9.30468 2.49984 8.92542C7.92558 8.37704 13.2074 8.37462 18.4195 8.74704C19.9863 6.0338 21.7687 3.28947 23.536 0.694642C24.0185 0.0106544 24.2261 -0.435856 24.8408 0.670828C26.7224 3.83962 28.6629 7.02583 30.2426 10.3589C35.2957 11.3798 40.0379 12.9808 44.8614 14.7228Z" fill="white"/>
</g>
<mask id="mask1" mask-type="alpha" maskUnits="userSpaceOnUse" x="34" y="16" width="51" height="37">
<path fill-rule="evenodd" clip-rule="evenodd" d="M59.5201 16.5002C56.8155 16.5002 54.1834 16.6785 51.7863 16.9755C45.7192 17.7612 39.6653 19.3067 34.2172 21.7458C33.9007 21.8956 34.0418 22.0983 34.2994 22.0531C60.5027 17.6156 83.2163 22.1299 75.2901 41.1801C75.1886 41.3567 75.3551 41.3532 75.4223 41.3139C88.0135 35.1026 86.8346 22.5224 73.0348 18.2941C68.8246 17.0038 64.0696 16.5 59.523 16.5C59.5214 16.5002 59.5212 16.5002 59.5201 16.5002ZM72.0368 38.9957C71.3551 40.6611 70.7408 42.4323 70.1209 44.0415C68.1828 44.1526 66.2574 44.1941 64.5851 44.2263C64.4644 44.2291 64.401 44.3236 64.5498 44.4239C65.8728 45.2405 67.1009 45.8816 68.7362 47.0116C67.7364 48.9667 66.5436 50.713 65.3791 52.5739C65.2159 52.8168 65.1826 52.9938 65.5911 52.8108C67.7668 51.8526 70.0221 50.5544 71.8388 49.377C72.9555 50.3211 73.9823 51.4142 74.9497 52.5903C74.97 52.6143 75.0159 52.6311 75.0218 52.581C75.2322 50.793 75.1521 48.8327 74.943 47.2122C76.5023 46.032 78.0074 44.7836 79.3558 43.366C79.4663 43.2521 79.356 43.2204 79.2826 43.2299C77.6853 43.4181 75.7804 43.6421 74.2151 43.7584C73.6541 41.9613 73.1388 40.5025 72.4495 38.9823C72.3722 38.8247 72.3102 38.7456 72.2472 38.7456C72.183 38.7458 72.1182 38.8286 72.0368 38.9957Z" fill="white"/>
</mask>
<g mask="url(#mask1)">
<path fill-rule="evenodd" clip-rule="evenodd" d="M59.5201 16.5002C56.8155 16.5002 54.1834 16.6785 51.7863 16.9755C45.7192 17.7612 39.6653 19.3067 34.2172 21.7458C33.9007 21.8956 34.0418 22.0983 34.2994 22.0531C60.5027 17.6156 83.2163 22.1299 75.2901 41.1801C75.1886 41.3567 75.3551 41.3532 75.4223 41.3139C88.0135 35.1026 86.8346 22.5224 73.0348 18.2941C68.8246 17.0038 64.0696 16.5 59.523 16.5C59.5214 16.5002 59.5212 16.5002 59.5201 16.5002ZM72.0368 38.9957C71.3551 40.6611 70.7408 42.4323 70.1209 44.0415C68.1828 44.1526 66.2574 44.1941 64.5851 44.2263C64.4644 44.2291 64.401 44.3236 64.5498 44.4239C65.8728 45.2405 67.1009 45.8816 68.7362 47.0116C67.7364 48.9667 66.5436 50.713 65.3791 52.5739C65.2159 52.8168 65.1826 52.9938 65.5911 52.8108C67.7668 51.8526 70.0221 50.5544 71.8388 49.377C72.9555 50.3211 73.9823 51.4142 74.9497 52.5903C74.97 52.6143 75.0159 52.6311 75.0218 52.581C75.2322 50.793 75.1521 48.8327 74.943 47.2122C76.5023 46.032 78.0074 44.7836 79.3558 43.366C79.4663 43.2521 79.356 43.2204 79.2826 43.2299C77.6853 43.4181 75.7804 43.6421 74.2151 43.7584C73.6541 41.9613 73.1388 40.5025 72.4495 38.9823C72.3722 38.8247 72.3102 38.7456 72.2472 38.7456C72.183 38.7458 72.1182 38.8286 72.0368 38.9957Z" fill="url(#paint0_linear)"/>
</g>
<mask id="mask2" mask-type="alpha" maskUnits="userSpaceOnUse" x="19" y="23" width="49" height="24">
<path fill-rule="evenodd" clip-rule="evenodd" d="M61.6844 23.7897C58.5877 25.3214 58.7541 29.2841 59.2244 32.0867C59.6793 34.8147 61.2081 38.7599 64.6612 36.9421C67.7294 35.327 68.0087 31.8699 67.4857 28.5138C67.1269 25.9394 65.7069 23.3459 63.4087 23.3457C62.8798 23.3457 62.3039 23.4831 61.6844 23.7897ZM62.478 30.421C62.2699 29.4079 61.7796 26.5765 62.8037 26.237C63.7902 25.9104 64.2942 29.0605 64.4401 29.8203C64.6065 30.6924 65.1852 33.5447 64.1357 33.9696C64.0791 33.9922 64.0238 34.0031 63.97 34.0031C63.0616 34.0034 62.5866 30.8913 62.478 30.421ZM50.6502 26.6715L51.2896 30.4875C51.8965 30.3575 52.5028 30.2241 53.1093 30.0893C53.7289 33.7975 54.3356 37.5068 54.9831 41.2097C56.1736 40.7503 57.3569 40.2727 58.5291 39.7682C57.9156 36.2343 57.3435 32.6942 56.7369 29.1595C57.2967 28.9973 57.8541 28.8256 58.4117 28.6545C58.2144 27.4814 58.0174 26.3079 57.821 25.1344C55.4466 25.7175 53.0562 26.2313 50.6502 26.6715ZM42.0523 27.7821C42.287 29.1654 42.5173 30.5491 42.741 31.934C43.4331 31.8352 44.1246 31.7338 44.8162 31.6333C45.4776 35.708 46.1593 39.7794 46.87 43.8459C48.197 43.4443 49.5242 43.0422 50.8452 42.6213C50.1884 38.7279 49.5396 34.8334 48.8897 30.9389C49.5209 30.8186 50.1512 30.6953 50.7793 30.5592L50.1413 26.7321C47.4527 27.1401 44.7563 27.4895 42.0523 27.7821ZM22.6027 46.6169C25.7785 46.8395 28.9587 46.8513 32.1385 46.7109C31.8793 45.1992 31.6164 43.6881 31.3475 42.1775C30.0353 42.2376 28.7225 42.2572 27.4092 42.2475C26.5464 37.5704 25.7448 32.8823 24.9034 28.2015C22.9948 28.0988 21.0889 27.9691 19.1836 27.8181C20.2794 34.0923 21.4527 40.3526 22.6027 46.6169ZM35.9922 27.9824C35.938 27.9824 35.8824 27.9831 35.8271 27.9842C30.5898 28.1905 30.0538 33.8184 30.7311 37.7407C31.4121 41.7599 33.8937 47.1145 38.9434 46.1273C43.3849 45.2586 44.0197 40.3375 43.4544 36.6069C42.8221 32.4223 40.7083 27.9829 35.9935 27.9824H35.9922ZM35.7262 36.9296C35.5142 35.764 34.7525 31.7411 36.371 31.589C38.0982 31.4285 38.6604 35.713 38.8343 36.756C38.9932 37.71 39.672 41.9541 38.2152 42.1995C38.1681 42.2069 38.122 42.2113 38.0762 42.2113C36.5592 42.2107 35.9142 37.9644 35.7262 36.9296Z" fill="white"/>
</mask>
<g mask="url(#mask2)">
<path fill-rule="evenodd" clip-rule="evenodd" d="M61.6844 23.7897C58.5877 25.3214 58.7541 29.2841 59.2244 32.0867C59.6793 34.8147 61.2081 38.7599 64.6612 36.9421C67.7294 35.327 68.0087 31.8699 67.4857 28.5138C67.1269 25.9394 65.7069 23.3459 63.4087 23.3457C62.8798 23.3457 62.3039 23.4831 61.6844 23.7897ZM62.478 30.421C62.2699 29.4079 61.7796 26.5765 62.8037 26.237C63.7902 25.9104 64.2942 29.0605 64.4401 29.8203C64.6065 30.6924 65.1852 33.5447 64.1357 33.9696C64.0791 33.9922 64.0238 34.0031 63.97 34.0031C63.0616 34.0034 62.5866 30.8913 62.478 30.421ZM50.6502 26.6715L51.2896 30.4875C51.8965 30.3575 52.5028 30.2241 53.1093 30.0893C53.7289 33.7975 54.3356 37.5068 54.9831 41.2097C56.1736 40.7503 57.3569 40.2727 58.5291 39.7682C57.9156 36.2343 57.3435 32.6942 56.7369 29.1595C57.2967 28.9973 57.8541 28.8256 58.4117 28.6545C58.2144 27.4814 58.0174 26.3079 57.821 25.1344C55.4466 25.7175 53.0562 26.2313 50.6502 26.6715ZM42.0523 27.7821C42.287 29.1654 42.5173 30.5491 42.741 31.934C43.4331 31.8352 44.1246 31.7338 44.8162 31.6333C45.4776 35.708 46.1593 39.7794 46.87 43.8459C48.197 43.4443 49.5242 43.0422 50.8452 42.6213C50.1884 38.7279 49.5396 34.8334 48.8897 30.9389C49.5209 30.8186 50.1512 30.6953 50.7793 30.5592L50.1413 26.7321C47.4527 27.1401 44.7563 27.4895 42.0523 27.7821ZM22.6027 46.6169C25.7785 46.8395 28.9587 46.8513 32.1385 46.7109C31.8793 45.1992 31.6164 43.6881 31.3475 42.1775C30.0353 42.2376 28.7225 42.2572 27.4092 42.2475C26.5464 37.5704 25.7448 32.8823 24.9034 28.2015C22.9948 28.0988 21.0889 27.9691 19.1836 27.8181C20.2794 34.0923 21.4527 40.3526 22.6027 46.6169ZM35.9922 27.9824C35.938 27.9824 35.8824 27.9831 35.8271 27.9842C30.5898 28.1905 30.0538 33.8184 30.7311 37.7407C31.4121 41.7599 33.8937 47.1145 38.9434 46.1273C43.3849 45.2586 44.0197 40.3375 43.4544 36.6069C42.8221 32.4223 40.7083 27.9829 35.9935 27.9824H35.9922ZM35.7262 36.9296C35.5142 35.764 34.7525 31.7411 36.371 31.589C38.0982 31.4285 38.6604 35.713 38.8343 36.756C38.9932 37.71 39.672 41.9541 38.2152 42.1995C38.1681 42.2069 38.122 42.2113 38.0762 42.2113C36.5592 42.2107 35.9142 37.9644 35.7262 36.9296Z" fill="url(#paint1_radial)"/>
</g>
<mask id="mask3" mask-type="alpha" maskUnits="userSpaceOnUse" x="2" y="5" width="65" height="52">
<path fill-rule="evenodd" clip-rule="evenodd" d="M23.2167 5.31811C21.9014 7.36068 20.5268 9.43672 19.3696 11.6741C15.2913 11.2975 11.1376 11.187 6.91463 11.3231C6.80878 11.3267 6.78838 11.4246 6.88212 11.467C10.4879 13.3054 13.2687 14.9402 16.4594 17.1168C15.0836 19.9231 13.2353 23.525 12.153 27.3154C12.1246 27.4064 12.1898 27.4531 12.2683 27.4011C15.5801 25.2121 19.0429 23.3083 22.622 21.6243C25.3967 23.9156 27.9954 26.4209 30.3463 29.1422C30.4209 29.2245 30.4768 29.1784 30.4806 29.0969C30.6586 25.5758 30.3122 22.1136 29.4622 18.7096C32.3121 17.6086 35.2184 16.6135 38.1649 15.6949C38.2605 15.665 38.2515 15.5818 38.1663 15.5501C34.6659 14.388 31.0948 13.4748 27.4581 12.7954C26.3706 10.2624 25.0072 7.77209 23.3616 5.30249C23.3416 5.2746 23.3194 5.26367 23.2977 5.26367C23.2647 5.26367 23.2346 5.28866 23.2167 5.31811ZM10.8776 29.4889C4.56968 34.8603 1.41238 40.9989 3.06245 46.3018C6.04102 55.8732 23.5489 59.1021 42.1595 53.5125C53.0635 50.237 61.9301 44.6602 66.805 38.6788C66.8963 38.5668 66.8285 38.433 66.674 38.5588C62.1385 42.3365 56.1419 45.6356 49.1962 47.8892C31.2039 53.7269 13.6482 50.3401 9.99309 40.3272C8.77112 36.9798 9.25775 33.3146 11.1191 29.7002C11.2 29.5456 11.1621 29.4106 11.0509 29.4106C11.0049 29.4111 10.9462 29.4343 10.8776 29.4889Z" fill="white"/>
</mask>
<g mask="url(#mask3)">
<path fill-rule="evenodd" clip-rule="evenodd" d="M23.2167 5.31811C21.9014 7.36068 20.5268 9.43672 19.3696 11.6741C15.2913 11.2975 11.1376 11.187 6.91463 11.3231C6.80878 11.3267 6.78838 11.4246 6.88212 11.467C10.4879 13.3054 13.2687 14.9402 16.4594 17.1168C15.0836 19.9231 13.2353 23.525 12.153 27.3154C12.1246 27.4064 12.1898 27.4531 12.2683 27.4011C15.5801 25.2121 19.0429 23.3083 22.622 21.6243C25.3967 23.9156 27.9954 26.4209 30.3463 29.1422C30.4209 29.2245 30.4768 29.1784 30.4806 29.0969C30.6586 25.5758 30.3122 22.1136 29.4622 18.7096C32.3121 17.6086 35.2184 16.6135 38.1649 15.6949C38.2605 15.665 38.2515 15.5818 38.1663 15.5501C34.6659 14.388 31.0948 13.4748 27.4581 12.7954C26.3706 10.2624 25.0072 7.77209 23.3616 5.30249C23.3416 5.2746 23.3194 5.26367 23.2977 5.26367C23.2647 5.26367 23.2346 5.28866 23.2167 5.31811ZM10.8776 29.4889C4.56968 34.8603 1.41238 40.9989 3.06245 46.3018C6.04102 55.8732 23.5489 59.1021 42.1595 53.5125C53.0635 50.237 61.9301 44.6602 66.805 38.6788C66.8963 38.5668 66.8285 38.433 66.674 38.5588C62.1385 42.3365 56.1419 45.6356 49.1962 47.8892C31.2039 53.7269 13.6482 50.3401 9.99309 40.3272C8.77112 36.9798 9.25775 33.3146 11.1191 29.7002C11.2 29.5456 11.1621 29.4106 11.0509 29.4106C11.0049 29.4111 10.9462 29.4343 10.8776 29.4889Z" fill="url(#paint2_linear)"/>
</g>
<defs>
<linearGradient id="paint0_linear" x1="-4.2732" y1="28.6927" x2="40.003" y2="73.6028" gradientUnits="userSpaceOnUse">
<stop stop-color="#FFDD00"/>
<stop offset="1" stop-color="#F6871F"/>
</linearGradient>
<radialGradient id="paint1_radial" cx="0" cy="0" r="1" gradientUnits="userSpaceOnUse" gradientTransform="translate(43.5299 24.3547) scale(30.2391 14.6214)">
<stop stop-color="#00ACED"/>
<stop offset="1" stop-color="#263B97"/>
</radialGradient>
<linearGradient id="paint2_linear" x1="-12.7599" y1="47.5881" x2="36.446" y2="90.4268" gradientUnits="userSpaceOnUse">
<stop stop-color="#FFDD00"/>
<stop offset="1" stop-color="#F6871F"/>
</linearGradient>
</defs>
</svg>
